<mxfile>
    <diagram id="6ul-9yZD9wengLI34xmS" name="Page-1">
        <mxGraphModel dx="1118" dy="790" grid="1" gridSize="10" guides="1" tooltips="1" connect="1" arrows="1" fold="1" page="1" pageScale="1" pageWidth="850" pageHeight="1100" background="#ffffff" math="0" shadow="0">
            <root>
                <mxCell id="0"/>
                <mxCell id="1" parent="0"/>
                <mxCell id="sHujsUZD7eR1zYQa2pCW-29" value="" style="shape=image;verticalLabelPosition=bottom;labelBackgroundColor=#ffffff;verticalAlign=top;aspect=fixed;imageAspect=0;image=data:image/png,iVBORw0KGgoAAAANSUhEUgAAAeIAAAISCAYAAAAQk8wnAAAgAElEQVR4Ae2df4hkV1r3LyLiH7L4hz9KEE1DaxgmrJk3iNOia0+TYU25CWu7o5uGWR06b9yxcWNoBw3dCWEoEx2LQbKzC2bbYd+sPcpAj5Klo7vQM4Fle4Rde4g79rJEetT5o2UDKeK41EAiz8u5Vafq1q1bp+695/6+n4JL3R/nPM85n+fc861z77m3nG63K5MWsfxMsht2v6X7ifXC/+SYe9nA346Al2WcdTvvQvs39G1h4gF/OwJhGJvS2HkvV/t3TJU1QQpzzGQ7zLEwPkxpwvgwpTHZDnPMZDvMsTA+TGnC+DClMdkOc8xkO8yxMD5MacL4MKUx2Q5zzGQ7zLEwPkxpwvgwpTHZDnPMZDvMsTA+TGnC+DClMdkOc8xkO8yxMD5MacL4MKUx2Q5zzGQ7zLEwPkxpwvgwpTHZDnPMZNt/DCH2E/Fsh4FtSuMxFWvVZDvMsVhOPZnC+DCl8ZiKtWqyHeZYLKeeTGF8mNJ4TMVaNdkOcyyWU0+mMD5MaTymYq2abIc5FsupJ1MYH6Y0HlOxVk22wxyL5dSTKYwPUxqPqVirJtthjsVy6skUxocpjcfU1FWE2IDIBDnMMYPpUIfC+DClCeXEkMhkO8wxg+lQh8L4MKUJ5cSQyGQ7zDGD6VCHwvgwpQnlxJDIZDvMMYPpUIfC+DClCeXEkMhkO8wxg+lQh8L4MKUJ5cSQyGQ7zDGD6VCHwvgwpQnlxJDIZDvMMYPpsUMI8RiS4Y4wsE1phpbirZlshzkWz+swVxgfpjRDS/HWTLbDHIvndZgrjA9TmqGleGsm22GOxfM6zBXGhynN0FK8NZPtMMfieR3mCuPDlGZoKd6ayXaYY/G8DnOF8WFKM7QUb81kO8yxeF6HucL4MKUZWpq+NibEV69elfn5eXf5yEc+IjaLthP328a3yhvXr86Hf+Jv0wZ0O4r7beOb9s/5H7fd6Xy0v+T7P6WvQZ8xIX7xxRdFLTdu3GCBAW2ANkAboA3QBhJoA1pbIwlxUGL2QQACEIAABCAQnQBCHJ0ZOSAAAQhAAAKJEUCIE0OJIQhAAAIQgEB0AghxdGbkgAAEIAABCCRGACFODCWGIAABCEAAAtEJIMTRmZEDAhCAAAQgkBgBhDgxlBiCAAQgAAEIRCeAEEdnRg4IQAACEIBAYgQQ4sRQYggCEIAABCAQnQBCHJ0ZOSAAAQhAAAKJETAKsf+l1evr6+4rLhPzjiEIQAACEIBAzQkoIVb66tdcte34dyLENW8tVB8CEIAABBIngBAnjhSDEIAABCAAgfAEEOLwrEgJAQhAAAIQSJwAQpw4UgxCAAIQgAAEwhNAiMOzIiUEIAABCEAgcQIIceJIMQgBCEAAAhAITwAhDs+KlBCAAAQgAIHECSDEiSPFIAQgAAEIQCA8AYQ4PCtSQgACEIAABBIngBAnjhSDEIAABCAAgfAEEOLwrEgJAQhAAAIQSJwAQpw4UgxCAAIQgAAEwhNAiMOzImUlCexKy3HEcZembLxtrmTn9ZV+WkdaN81ppx09vN6SjW94Ux3K5ilVlpbsendbrXfk4I1LsnJqQY40+vWcnZOFMy3ZvHkoXSvb/cx3N2VR8TufXKmTKBY2IFAWAghxWSJFOVMi4BViR5qXDwx+OrJ1Rou2nRAfXl1yBX1UzBMW4jtbsnJ8KL7L59rSvtCWtbPNgSg3Hm/LXsdQ5TCHEOIwlEgDgYkEEOKJaDhQDwJaiI/JsYcdcU5uyEQpfmdLlh1Hjj18LEBEo9E6vLIYYCNBIb6zKUvuCHhOVq4djI983z+UnZea0lAj2eMt2b0XrfykhgAEkiNgFGK/G5VYLXwgUB0CWohb0r6oBHZh4uXpzrVlcZxlaV8IEtFoRNIV4o5sn22I4xyTta+ZLz7vXZhzfxAcO787LtbRqkRqCEAgJgGTtjp+m6bE/rRsQ6AcBIZCvHurLcccRxZeDRoT90erZ7dlL3A0KyJqlPnKiiwen3HFTd13njm+KCuv7Mjh+5qGHvUOL3GrdL1L1PpYS3aVrQvLMjfbSzdzfFla1/bDiWW/Hs6ZLZl61bm7I2vuyHlZtt7xlzHoXrWnjDr52KVpnWa0jr378HpfkG1tkG8I1IuASVsR4nq1hZrW1iPEciAbJydcnu6LzcrrHQkczd7blZZ7P7YhR55cde/Ftp9fkWZfSBtnt/ui2JHdy21ZO927vN0827tvu+1OEtMCNicLJxrizDZl5fm2tJ9floX+RKtm4I+E0dAdvLrg/hBYvHI4emDC1u55NXp2ZPWrevSsyxEklgHHxoS4V0d1P9q/rJ464vpqnN6ScKWbUGh2Q6BCBBDiCgWTqsQh4BVikZ6IjV+e7onvqux0JVCIDy43xXEasnTFP5o+kI3H1ChwSbY8yhMo5qJFzpHG6U05GIyiReROf2byw23Zm1LN3fO9UefoRLDJmXRZFl/TZdfliCvEE3zp+9bck54AiN11JYAQ1zXy1LtPYFSI5e0NWRi7PN0X03M77qVhLVxDoTuU7WcX5MhskHCJ9IRxUTbvDqGP21DHtACO/xAYHgv24bHcfwRKX+4eHpm0pssyfPxIlyPIV8CxsRFxgCd9xaCxJJt3Ao6zCwI1JoAQ1zj4VF0R8Alx0OXptzek6TRk7Xrv0q0WrqEQe0i+35VO50D2ru/I1uW2rJ6Zkxn3GeUoQrwi22M3d7UAjo6sPZ4Hq3FHxMN749pXQkL8/oFsnlaXv+ekdVNf/h4UlxUI1J4AQlz7JlB3AH4hFuldZh6OSt3txpp7WVrRChTie/uyea7ZF109IUlN1lqWRffSdBQhNgngqJ2g6A3uEQ8uNQelGu5L/h7x0LaIFuGgy/bedKxDoL4EEOL6xp6auwTGhVhdnm4OLk/3JnA1nutdllZZxoX4ULbcEV9Dms9tyvatA+l0OoMZztEvTdsJsb687pzanD4hqrsrLfX8tJPkrGndtLqye773eNQcj0dpKHxDYIwAQjyGhB31IhAgxOrytBrFqpd7uPeMGyOvsxwTYn2PNPBxIX2Zd3QkO2bDha7TWgqxdPrPETdk9Q3fNe5bbWkeX5bVy+qRqqFQjj5HrMvRm5w20h66O7LqXmr3lFHX3/eKy4MrS+4LQ9yJZyNG2IAABLwEEGIvDdZrSCBIiIeXp5f/74I4DY/oBI2ItRCdvCT7PoIHr/XEyHF8Qtx/xeXwkSGVUQvgqL+eSX1s1I7P3XBTz1B2/G/W6srh9bYsqseqGo2Jb9bqXa5ueB5pUqa7sv/53stMRt6HrevvEeLuzZbMOWr294bs89auYVxYg0AAAYQ4AAq76kQgWIj15Wn1fO2xC6MPDI2PZvWlaUcaDy3Jqvv87KosPdSboNR8POCVmN9o9UVwWdYutGX0OeIEhFiF8M62rKrnkdUIdnZOgt417dbvnH7G2RP3W21XSB1nRppn16R9YVWW1YtKZldkxX3ftqeMfiH+1qX+c89HZLH/fmv/88Rqu1dnj09WIVBTAghxTQNPtTWBCUI8GJ0ek/Ytnbb3PS7EInJvX7bOD9+E5Qrf+U3ZVc8O3+yJ7ugfSnRk5/zwzxfUi0ISHREPijzp35dWZeP6gexfW3VFs/F4S3Y8zzmr7J1vbUlLz/puHJHm2Q33DyJ697wNQnyz1RN/9xL2cOKa+4PAsy9w1vmg3KxAoD4EEOL6xJqaQiCYQEf9iFiU5sXRkX9wYvZCAAJJE0CIkyaKPQhAAAIQgEAEAghxBFgkhQAEIAABCCRNACFOmij2IAABCEAAAhEIGIW42+2Kd1lfX+f/iCPAJSkEIAABCEBgGgElxEpfvXqr1x29or8R4mk4OQ4BCEAAAhCIRgAhjsaL1BCAAAQgAIFECSDEieLEGAQgAAEIQCAaAYQ4Gi9SQwACEIAABBIlgBAnihNjEIAABCAAgWgEEOJovEgNAQhAAAIQSJQAQpwoToxBAAIQgAAEohFAiKPxIjUEIAABCEAgUQIIcaI4MQYBCEAAAhCIRgAhjsaL1BCAAAQgAIFECSDEieLEGAQgAAEIQCAaAYQ4Gi9SQwACEIAABBIlgBAnihNjEIAABCAAgWgEEOJovEgNAQhAAAIQSJQAQpwoToxBAAIQgAAEohEwCrHflEqsFj4QgAAEIAABCCRDwKStjt+FKbE/LdsQgAAEIAABCEwnYNJWhHg6P1JAAAIQgAAErAggxFb4yAwBCEAAAhCwI4AQ2/EjNwQgAAEIQMCKAEJshY/MEIAABCAAATsCCLEdP3JDAAIQgAAErAggxFb4yAwBCEAAAhCwI4AQ2/EjNwQgAAEIQMCKAEJshY/MEIAABCAAATsCCLEdP3JDAAIQgAAErAggxFb4yAwBCEAAAhCwI4AQ2/EjNwQgAAEIQMCKAEJshY/MEIAABCAAATsCCLEdP3JDAAIQgAAErAggxFb4yAwBCEAAAhCwI2AU4m63K95lfX2d/yO2401uCEAAAhCAwAgBJcRKX716q9cdvaK/EeIRdmxAAAIQgAAErAkgxNYIMQABCEAAAhCITwAhjs+OnBCAAAQgAAFrAgixNUIMFJrA2xvSdBxxHm7L3tSCHsjGY444zrJsvTM1sSfBoWyeUvlasuvZm8fq4ZVFcVR9Jy2NI7JwakUuvXEg3TwKiE8IQGCMAEI8hoQd1SLQka0zSpiOSfvWlJq9vSELSsDObktnStLRw8UT4mOn16R9oT22rJ6Zk5m+SM+9tIcYjwaSLQjkQgAhzgU7TrMk0Lm27I4Qj10wj4n3LhwTx2nI2vWoY8XiCfHilcPJiO9sylJD/Thpysbbk5NxBAIQyIYAQpwNZ7zkSaC7I2tKeBqmS8e70lJpQl3C9lemZEIsIrvnG+6Pk6WrBsH2V5NtCEAgFQIIcSpYMVo0AtNGu93ra9JwHFl49WBY9PcPZeeVFVk8PjO45zpzfFFWXtmRw/eHyUQChPjupiyqS8DnA+4aG451vrUlLc/l45njy9K6th/6Urm+R2wcEYvIwWu9e8lB6Q6vX5KVU8NL2M7snCyevSQ7Ps3ePa/vi3dk7/KKNB/qiXvjoaasvLIbXOZ3duXS2aYccUfkDTny+KpsfrsrPVuLsnnXy1VEDnc86R3p2fbz9+VhEwIlI4AQlyxgFDcmgVttOeY40nhuJ+C+aFd2zvku1d7bldZxta8hR55c7d1rfX5FmrNqnyONkfvIyQjxwZUl98eA0zgiS+fU/d01WXms9yNg5syWeH4iTIQQToh1eRvSuuk1pQRxrle/h5Zk1b3HPCyD01iRbc8ktp54rkhL5Zmdk2VVZg+jY+d3R1kPLolrptr2nMy5rEeFuHuzJXPu/ewZaZ7t3fNeffKIy6hxoiW797xlZx0C5SWAEJc3dpQ8EgE9I3pVdvy3gN/ZkmXV4Z/ZGoziDi43XRFeuuKXP21nSbYGI0QtbJ5L34ZRrwQd07O7H2vL3ojAdGX/1Z5AB41e/QimCXH3nX3Zen6hJ2anN0fFvV+Ghn+/GkG/qng44r2U3RNiR5zjPlG8tytrD6sfLCuyPZj1pifNzUnra4OdItKV/c/rmd4eIb63I6vurYIV2bozWsvOV9dcgR4T+tFkbEGgNAQQ4tKEioLaEtCTtpaveYVApLffO0nrULafXZAjsx5h9Tgfv4xqL8R7F9VEsUkzu/v3r09ujAqnp0x6VQvxxMeX3BFmQxae3ZT9EcEXOXx9VRYemvGNkvuWb7ZcIfb+GNBCvPL6KE+VY4yR/qFxLuiKxJ60XeEeCnHn9RXXnz9WvdJo3gE/qjQIviFQIgIIcYmCRVEtCQSMfEX6I9zG2vhIWbl7vyudzoHsXd+RrcttGT7+MxQN+3vEWliOydJz448cqUvUS2MjzGAWWohHH19alaX+/duFs5uyN66bY8a6nY4c3NqRnWsb0j63LHP9S/LjQhz848EvxFpYvfm9TnefVyPoIVMt8s2zQTzasuI+7x3s22uXdQiUgQBCXIYoUcaECHRl5zk1oWjY4Ut/pDb2aNO9fdk81xw8c6tHmGry1KIrAh4b1pO1tBD37j9rX+PfXp/BSLQQjwteZ3D/d/L95q7sX1kd3Acf+Ff3f0/1Lk177frF1lsi/zFdrrXr3lTDdX96LcSDMrgj+XE+o/e4h/ZYg0CZCCDEZYoWZbUn0J+01bzcu/fbm03tf572ULZOK8FuSPO5Tdm+dSCdTmcw8cgvGsmNiO0vtWrB8wrmENqBbLr1cmTOP5FKTVC+2rsX3Xh8TTbf2JODTkc6+n76xEvTwT8O/IymjojdGdhDW738CzznPAweaxUmgBBXOLhULYhA/37kY+p+a3/dM0nLzaEnU/n3uwf16HUoGkYhDrgn2v3qqnv/0/toU++5Xu99ak/Z3eegZ2Tu8UtTX9NpFmIReWdbVvqPDq1+Vaus8qXrFfx6zyC7frH1lDjwHrH71rIAHqLj4LlSof3pH0xe273bCQ05cmJ1ZBb3aBq2IFAeAkYh9ldDJVYLHwiUmUBvRnRTNq70HmkamxCkhfjkJdn3VfTgtf4jRh7RGIqYd3JXf4JVY1V2vJOi7u3LJfe91L5njG+1e4/qqBnII/dwh48UzV00vxlMFVULWPCIuFcZNTpVz0w7I2XTQrwgl77tq/TgsSNHvHYjCfFA6P2zptUzzQFM9Q+GxpJs+mZN68e8Rh8h85WZTQiUiIBJWx1/PUyJ/WnZhkBhCfQnbTUaDXECJ2npS9PqBRL6eVo94WlOmo+rGc6OZ3axFjGvEIvsXew9k+vMNmXl+fZg0tPM76/0HpcaedlHVw4u9wUp4DnisM/NhhFikY5sn+2/fMMzQtWXpofPMbdFP7c793jTfQ57dBQ/OsHKG+9AkR4I+ozMnVHPZvefI27MyZxv1rSy1bnee0zJccafI3Zml8cea/L6Zx0CZSJg0laEuEyRpKwRCOhnWh0Zm6Slrdzbl63zw9nC7gsrzm/Krnp2+GbLHVEOL5sGC7ESvP1rLVnuv5nLfSvU5T3pyK601Ih0RIh7jntv1lrov3kq+pukwgnxpEvU3ZHyKgGcO9OSzZuq0v0RvntJv1fWQLHt85t4zP9mrSdbsn3noP/vVQH3yN03ay0OZm334rAl+yNXDXTQ+IZAOQkgxOWMG6WGQIUIHMjmr/feBT794nuFqk1VINAngBDTFCAAgfQJdNQksSOycG78LyY7X+u9yjL49aPpFw0PEMibAEKcdwTwD4FaEFDPcPffm318uf8e6+E9aOf4imz7//ChFlyoJATEnQStxDjowz3iICrsgwAEYhLo3zM/0fvjBjXhrfdvSttywD3fmEzJVgUCjIirEEXqAAEIQAACpSWAEJc2dBQcAhCAAASqQAAhrkIUqQMEIAABCJSWAEJc2tBRcAhAAAIQqAIBhLgKUaQOEIAABCBQWgIIcWlDR8EhAAEIQKAKBBDiKkSROkAAAhCAQGkJIMSlDR0FhwAEIACBKhBAiKsQReoAAQhAAAKlJWAU4m63K95lfX2d/yMubagpOAQgAAEIFJGAEmKlr1691euOXtHfCHERQ0iZIAABCECgzAQQ4jJHj7JDAAIQgEDpCSDEpQ8hFagzga9//esyPz8feVH5+EAAAsUggBAXIw6UAgKxCKgTWAmx+g676PSxHJIJAhBInABCnDhSDEIgOwJaiKN4RIij0CItBNIngBCnzxgPEEiNAEKcGloMQyAzAghxZqhxBIHkCSDEyTPFIgSyJoAQZ00cfxBIkABCnCBMTEEgJwIIcU7gcQuBJAggxElQxAYE8iWAEOfLH+8QsCKAEFvhIzMECkEAIS5EGCgEBOIRQIjjcSMXBIpEACEuUjQoCwQiEkCIIwIjOQQKSAAhLmBQKBIEwhJAiMOSIh0EiksAIS5ubCgZBKYSQIinIiIBBApPACEufIgoIAQmE0CIJ7PhCATKQsAoxP5KqMRq4QMBCBSDAEJcjDhQCgjYEDBpq+M3bErsT8s2BCCQPgGEOH3GeIBA2gRM2ooQp00f+xCwJIAQWwIkOwQKQAAhLkAQKAIE4hJAiOOSIx8EikMAIS5OLCgJBCITQIgjIyMDBApHACEuXEgoEATCE0CIw7MiJQSKSgAhLmpkKBcEQhBAiENAIgkECk4AIS54gCgeBEwEEGITHY5BoBwEKiPEjzzyiDiOwwKDwreBGzduJNY7FEGIVX049+h7ytAGlE4U8VMZIVaNQHUILDAochvQ7TSpzqBIQlxk7pSNfkG1AXX+FfFTOSEuImTKBAFNoMpCrOvINwSKSAAhziAqSXdwGRQZFzUkkHQ7LdKIuIbhpMolIoAQZxCspDu4DIqMixoSSLqdIsQ1bERUORYBhDgWtmiZku7gonknNQTCEUi6nSLE4biTCgIIcQZtIOkOLoMi46KGBJJupwhxDRsRVY5FACGOhS1apqQ7uGjeSQ2BcASSbqcIcTjupIJAaYW42+2Kd1lfXy/s/xEn3cHRbCGQBoGk2ylCnEaUsFlFAkUXYqWvXr3V645e0d8IcRWbJ3XKkgBCnCVtfEFgSAAhHrJIbS3pDi61gmK41gSSbqeMiGvdnKh8BAIIcQRYcZMm3cHFLQf5IGAikHQ7RYhNtDkGgSEBhHjIIrW1pDu41AqK4VoTSLqdIsS1bk5UPgIBhDgCrLhJVQf35ptvxs1OPghkQgAhzgQzTiAwRkDpgzr/ivhRP6grM1kLIS5iE6NMXgIIsZcG6xDIjgBCnAFrRsQZQMaFNQGE2BohBiAQiwBCHAtbtEwIcTRepM6HAEKcD3e8QgAhzqANRBfiXWk56s+8W7KbQflwAQFFACHW7SDk+Xd3UxbVeXpqUw51Vr3vfPwzd/e8OvcXZfOuNsp31QkgxBlEGCHOADIurAkgxBohQqxJ8J0NAYQ4A84IcQaQcWFNACHWCC2EWJuw+GZEbAGvpFkR4gwChxBnABkX1gQQYo0QIdYk+M6GAEKcAeeshPjw5oasnpqTGff+siMzx5eldW1fOoM6dmT7rLr/tCLbw53u0YNXF9x7hM65HekO0quVPWk/PHofrPeL3ZHFK4M7YyM52CgnAYRYx81CiCfeI+7K/rWWLB+f6Z1ns3OyfGFXOnf695k995QHI+I7Hdm/sirNhxpunsZDTVl5ZddzPvfLe7PVs+m9V62rwncpCCDEGYQpfSHuyu5LC9JQAqxO8HNtaV9YlSV9Ap/elIN+PQ+vLLon7epXvXKrBdoR5+G27HmZvL0hC44jzcvagghC7AVUnXWEWMcyaSHuyu75ub4AN2Xl+ba0zy3JkYYjjeNzckydt2NCfEwWTsyI0zgiS/3zeXFW/Yh2pOH/sYwQ68CV9hshziB0aQtx92bLPZkbpzdk/563Qp1BBzB3sS+v/V/sDc+JL90dWVUneEP98l6UzTtDG72R8oJsvD3cx1o1CSDEOq5aiHvCp7gYF+9INGhEfKvdPz835eB97UNE3tmWVXW1KVCIHXGOt2TXe+Xq3q6suenHr2h5rLJaQgKlFWI/a/UaLrUU8aNONAU6/Ed3BGEeX+rKzjl1Mh+T9q0AD90dWWs44jS0rQPZOOkb+bodxTFpX+mNflde12f/oWyecsQ5uTEYUQd4YFdFCKh2qt55m9SnvO+a1uffjMydXJCFScuJI72rUEYh7srOc+oHbvCP2c615YlCPHrVqheVwWVrHm1KqpkWwk7RhXiSto69lLO+QtwX1onPHGuhHj6X6B/l9rbXZFf2pKVE+/n+M5D9X/fH9Gi6EE2WQqRFACHWZLUQ6x+ver/vW49+jULcn2Mx6fyceI84+Id1T4gb0vqGryxslpoAQpxB+NIdEU/vNMZ+RfcvlfUmWx3K1mlHnLPb0pG+aPfvE3deX5k80s6AGy6yJYAQa97Tzyk3ZSgh7tt6fMJVJW3Dc6to7HzVxZLh/IzWTc9OVktPACHOIITpCnH0EfFgJrSa9NG/P6xnQPcmc6nRc6c3w9o/eSsDXrjIhwBCrLknKcRTRsQIsYZe62+EOIPwpyvE+tJz8KUsNRFr9B5xr8K75xu9+8Zfa0nDe3+5P0t65cpmbwKX55d6BqhwkSMBhFjDT1KI9fkZ9R7x8FaSLpX67o2WHWFE7KVS/nWEOIMYpivEIpFmTffr272+5gpw87Fjnolc6uCue5+4MTsjDacha9e9jzllAAsXuRFAiDX6JIXYe376Zk13dqV1fNKsaYRYR6MO3whxBlGOL8TmWZurr+sXakx5jvjxtuyNPNYkoh9ZUmUbfYlH/5K0+8jGquwE6LD+Va4vZ2eAEBcZEECINeRkhVhk+Byx+1IOz3PEc8f7zxd7rjxFvkfMc8Q6cKX9RogzCF18Ie7/Wp7wHKNfCA+vX5KVwZu1GnLkhP/NWt7KDgV3zE7/pR+jAj3MixAPWVRpDSHW0UxaiJVd/5u1mrJyeU86X+u9FWvhVf8LcyKMiBFiHbjSfiPEGYQuuhBnUChcQMBHACH2Acli82tr7nPES1f11a0snOKjaAQQ4gwighBnABkX1gQQYmuEgQb2Lh6TmeOLcsn/wp33D2TztHrZR5M31wWSq89OhDiDWCPEGUDGhTUBhNgaYbCBtzdk0X273RFpnl2T9oW2tJ9fkab77uiGNF/Z8/3RSrAZ9laXAEKcQWwR4gwg48KaAEJsjXCygcMduXR2Ueb6f9zgODMyd6Ylmze5JD0ZWn2OIMQZxBohzgAyLqwJIMTWCDEAgVgEEOJY2KJlQoij8SJ1PgQQ4ny44xUCCHEGbQAhzgAyLqwJIMTWCDEAgVgEEOJY2KJlQoij8SJ1PgQQ4ny44xUCpRXibrcr3mV9fb1C/0dMw4RA9gQQ4uyZ4xECikDRhVjpq1dv9bqjV/Q3QkyDhoAdAYTYjh+5IRCXAEIcl1yEfFyajgCLpLkRQIhzQ4/jmhNAiDNoAAhxBpBxYU0AIbZGiAEIxCKAEMfCFi0TQhyNF7/i0BUAACAASURBVKnzIYAQ58MdrxBAiDNoAwhxBpBxYU0AIbZGiAEIxCKAEMfCFi0TQhyNF6nzIYAQ58MdrxBAiDNoA1qIb9y4ISwwKGobqLIQF5U55aI/UG0AIc5AiJ9++mmZn59ngUHh28Dt27cTOyNefPFFt75RDKrzROVL6qPqw7lH31OGNqB0oogfdT5W4jniIsKlTBBIm0ARhDjtOmIfAlUngBBXPcLUr9IEEOJKh5fK1YQAQlyTQFPNahJAiKsZV2pVLwIIcb3iTW0rRgAhrlhAqU4tCSDEtQw7la4KAYS4KpGkHnUmgBDXOfrUvfQEEOLSh5AKQMB9ioFZ0zQECJSUAEJc0sBRbAh4CBhHxJ507qpKrBY+EIBAMQggxMWIA6WAgA0Bk7Y6fsOmxP60bEMAAukTQIjTZ4wHCKRNwKStCHHa9LEPAUsCCLElQLJDoAAEEOICBIEiQCAuAYQ4LjnyQaA4BBDi4sSCkkAgMgGEODIyMkCgcAQQ4sKFhAJBIDwBhDg8K1JCoKgEEOKiRoZyQSAEAYQ4BCSSQKDgBBDiggeI4kHARAAhNtHhGATKQQAhLkecKCUEAgkgxIFY2AmBUhFAiEsVLgoLgVECCPEoD7YgUEYCCHEZo0aZIdAngBDTFCBQfgIIcfljSA1qTAAhrnHwqXplCCDElQklFakjAS3E8/PzEmVR+fhAAALFIIAQFyMOlAICsQjcvn3b/SMWfSKH/Vb5+EAAAsUgoM/boNLwrukgKuyDAAQgAAEIJEgAIU4QJqYgAAEIQAACUQkYhbjb7Yp3WV9f5/+IoxImPQQgAAEIQMBAQAmx0lev3up1R6/ob4TYQJJDEIAABCAAgRgEEOIY0MgCAQhAAAIQSIoAQpwUSexAAAIQgAAEYhBAiGNAIwsEIAABCEAgKQIIcVIksQMBCEAAAhCIQQAhjgGNLBCAAAQgAIGkCCDESZHEDgQgAAEIQCAGAYQ4BjSyQAACEIAABJIigBAnRRI7EIAABCAAgRgEEOIY0MgCAQhAAAIQSIoAQpwUSexAAAIQgAAEYhBAiGNAIwsEIAABCEAgKQIIcVIksQMBCEAAAhCIQQAhjgGNLBCAAAQgAIGkCCDESZHEDgQgAAEIQCAGAaMQ++2pxGrhAwEIQAACEIBAMgRM2ur4XZgS+9PWfXt+fl4cx8lluXHjRmXww7EyoaQiEIDABAImbUWIJ0ALs1uJsBLErBftN0wZy5BG1weOZYgWZYQABOIQQIjjUAuRRwtIiKSJJsnLb6KV8BjLqz55+fVUnVUIQKAmBBDilAKdV0eel9+UMLqX9vO41F41jmnFB7sQgIA9AYTYnmGghbw68rz8BkJIYGde9cnLbwLIMAEBCJSMAEKcUsDy6siT9nv79u3QM+VNjSku5qTrE7YcefkNWz7SQQAC1SFg6juZrGUR57w68iT9KhE+evSoPP3003Lq1CkjjT/7sz+T7//+73cvJf/pn/6pMW2Ug0nWpwx+o5SRtBCAQDUIIMQpxbHsAuIVYYVIifFv/MZvBNJ65ZVX5Id+6Ifk2rVrcuXKFVeM/+Iv/iIwbdSdZecYtb6khwAE6kcAIU4p5mUWEL8Ia0RKjB977DG96X7/5V/+pfzIj/yIvPHGG4P9f/VXf+WKsTpm+ykzR9u6kx8CEKgHAYQ4pTiXVUAmibDGpMT4V37lV9xNJbQ/+ZM/6T4rrY/rb3VMMXjttdf0rljfZeUYq7JkggAEakkAIU4p7MkLyH25/dfPytITT8ivPfGEvPCP3w0sua1ffU840Hh/5+nTp+Xnf/7nZXZ2Vv7pn/5pYlItxjaPH9nWZ7xw2XAc98seCEAAAsEEEOJgLtZ7kxaQ7157Sh6cmZUH1PLo5+T2B8FFtPW7uLgov/M7vxNs3LNXNZy33nrLs2d89bOf/aw8+OCDokbZcT+29fH7zYqj3y/bEIAABCYRQIgnkbHcn6iAvPsVeeZoX4RnPiqf/dfJhUvCb7PZnDpLenIJekfUzOmf/umflm9+85vTkhqPJ1GfgYOMOQ78sgIBCEDAQAAhNsCxOZScgNyXf355vjcSnpmVRy/uyX1DwZLyu7CwEFuMVaP68R//cWsRVtVMqj4i+XA0hIpDEIAABFwCCHFKDSExAfm3L8miviR99EW5/j1zgRPzKyK/+Iu/GFmMVYP60Ic+lIgIq5omVp8cOZojxlEIQKDuBIxC3O12xbusr6+HfstS3cEmIyD35fr60f5o+Kg8s/3eVKzJ+B26eeSRR0KLsWpMP/ADP5CYCKtSJFOf/DkOibIGAQhAYJSA6juVvnr1Vq87ekV/I8Sj8ExbcQTk/rvvyXvvvif39USsf/eMhg0TtLzliOPXm9+//vnPf16OHDni3x24/YlPfEKWl5cDj8XdGac+ReQYt/7kgwAEqk8AIU4pxtEE5L58/eX/M7gP/OBTV+U/PxC5/Yq+NxxuNKyqEs2vufJ//ud/LjMzM7K3t2dO6Dn6sY99TD75yU969titRqtPMTnaESA3BCBQdQK1FOIvf/nLMj8/P3FRUGw/0QRERL63J3/yqJ4ZrSZlfU5e0DOlf3ny40r+ckb26zfQ31YMfuInfiLWZeZHH3009OXsCe4HuyPXp2AcBxVhBQIQgMAEArUUYlXpEydOuG+EUi+b8C7qmBJp209kAVEO716VM1p89QStmVlZ/Ou7oYsTy6/PumLwwz/8w7FEWJv6pV/6pUTEOFZ9CsJRs+AbAhCAgIlArYU4CEyuQiwi720/O3xxhyvGvyd//25QSYP3xRIujylV/x/8wR+cKsLqx8v//u//enKOr0aZ6DWeu7cnbn3y5jipPuyHAAQg4CdQWyGeNOrNW4hF3pN/+IyeKT0rD764a3xu2B/QuMKl7aj8017C8dJLL8n3fd/3ycc//nH5n//5H5117Fu/tzqfV1zmy3EMBjsgAAEITCCAEPvA5C/EIvLBfXf29Hvvml7d4St4f9NWiK9evepO+NrZ2Ql0oP7eUP3loZrApf4A4qMf/ai88847Y2m1CD/33HNjx6LssKpPjhyj1JG0EIBAvQkgxL74F0KIfWWKsmklXH1HWoz/7u/+bsS1+hOHH/uxHxt5d7T+N6b/+I//GKTVIvwHf/AHg31xV5KoTxzfefmNU1byQAAC5SaAEPvip4CoiVy2n7w68qT8ajH+0pe+5KJQIvzAAw+MiLBmpMT4F37hF+Q73/mOezzMPzjpvNO+k6rPND/+43n59ZeDbQhAoPoEKivE6j6ndza0d9006tVC7E3vXw/TLPLqyJP0q8VYibB6qYfpX5R++7d/W37u535OlAh/6lOfCoMoVJok6xPKYT9RXn6jlJG0EIBANQhUVohVRxrnWeFpzxiH7aDDpku6GSXtV4mx4mgSYV2H3/zN3xS1JPlJuj5hy5aX37DlIx0EIFAdApUW4jfffDPxSIXtoMOmS7qAeflNuh7aXl71ycuvrjffEIBAfQggxBFjHbaDDpsuovupyfPyO7VgMRPkVZ+8/MbERDYIQKDEBBDiiMEL20GHTRfR/dTkefmdWrCYCfKqT15+Y2IiGwQgUGICCHHE4IXtoMOmi+h+avK8/E4tWMwEedUnL78xMZENAhAoMQGjEPvrpRKrpQyftDrSsHbV7GGVNo9FzfKuygeOVYkk9YAABCYRMGmr489kSuxPm/e2Fkz/o0d62zQLWKcJ+tZ2p9VP2Q/Kn8W+aWUr03E4lilalBUCEIhDwKStpRbiU6dOGUejpndNTxvFvvXWW3FYkwcCEIAABCAwRqCyQjxWU88OVWmTEE865jHBKgQgAAEIQCARAgixD6NJpH1J2YQABCAAAQhYE0CIfQgRYh8QNiEAAQhAIFUCCLEPL0LsA8ImBCAAAQikSgAh9uFFiH1A2IQABCAAgVQJ1FaIJ/3VIUKcanvDOAQgAAEI+AjUWojV7OhJi48TmxCAAAQgAIFUCNRSiBVJ04s1TC/7SCUKGIUABCAAgdoSqK0Q1zbiVBwCEIAABApFACEuVDgoDAQgAAEI1I0AQly3iFNfCEAAAhAoFAGEOKVwfPGLX3T/qUoDzvI7pSrlYhaOuWDHKQQgkCEBrQ9BLkv9pw9BFcpyn/rjCA03y++w/w6VJQsbX3C0oUdeCECgDAS0RgSV1el2u+Jd1tfXS/N/xEEVynJfXoKYl9+02OZVn7z8psURuxCAQHEJKCFW+urVW72OEFvELa+OPC+/FqiMWfOqT15+jTA4CAEIVJIAQpxSWPPqyNP2q36l/c3f/I28/PLL8oUvfEHSfuY67fpMCn9efieVh/0QgEB1CSDEKcU2r448Tb/f+c533DeRKR8f/vCH5Wd+5mfkQx/6kNy6dSsliiJp1sdU6Lz8msrEMQhAoJoEEOKU4ppXR56m309+8pPuHIFvfvObA2pXr15NVSzTrM+gEgErefkNKAq7IACBihNAiFMKcF4deVp+1ah3ku1Pf/rT8swzz6RCcpLPVJx5jObl11MEViEAgZoQQIhTCnReHXlaflVDUX+QEfRR7+2edCwofZR9adVnWhny8jutXByHAASqRwAhTimmeXXkafnd3t6Wn/qpnwqk9eyzz8of//EfBx6z3ZlWfaaVKy+/08rFcQhAoHoEEOKUYppGR37/X74kz5x+Qn7tiSfk19a/It8NKHsafpWbO3fuuJem1T1h70fNmj569Khsbm56dye2nnx97svtv35WlhTDJ56QF/4xiGJ+k8QSA4chCECgNAQQ4pRClbiAHL4uZ47OygMzavmofPZfgwueuF+PmwsXLrhirCZtqRHwU0895YrwqVOnPKmSXU26Pt+99pQ86DKclQce/Zzc/iC4vEn7DfbCXghAAALiToLlhR4ptIRkO/L35B8+c7QvwrPy6OcnqLDYjeTUe53X1tbkD//wD+Uzn/mM/O7v/q6cOXNGlpaW5BOf+IR87GMfk5MnT7pirOqnlhMnTsiv/uqvysc//nH5rd/6LfnUpz7lCvTKyoqoS9Z/9Ed/JC+88EJswolyfPcr8kyIHzOqsIn6jV17MkIAAnUgwIg4pSgn2ZHf/8bL8suDUdxF+ef7kwtt41flVQ0i6UVN5FITuuJ8bOoz6u++/PPL88MfMxf3xIARIR6FxxYEIJAiAYQ4JbiJCcgH/yb/b1Ffkj4qL9wwyYfdSC6xMvuYFkKI/+1Lsqh/zBx9Ua5/z1dI32ZaLHxu2IQABCDApem02kBSHfn9Gy8O7mk++JmvyHtTCmzj1yavqVj5C/F9ub6uL+0flWe2p1G0+0FjYsExCEAAAn4CjIj9RBLajiVq33tP3nv3PXlvMOi96xkNT56g5S1yLL99AzZ5vWXwr2ctxPcVw3ffk/t6Ita/e0bDhgla3nKnxcLrg3UIQAACigBCnFI7iNqR3999WT48uHT6lPztXRH5l88N7g2HGQ2rqkT1662+TV6vHf96dkJ8X77+8v8Z3Ad+8Kmr8p8fiNx+Rd8bDjcatuXorz/bEIAABEwEjELsz6gSq4XPdALRRU1NJvroQEQeePSifPZFfTl1Xj77L9N9qhTR/Q7t2uQdWhlfy06IReR7e/Inj+p76rPy6MXPyQt6pvQvT35cyV/qtFj4/bANAQhAwKStjh+PKbE/bd23Y3XkH9yVv31Ki+9QTB5Y/JL8Z0igsfz2bau8OsZJfmcqxKoud696nrkeclz8a3WZIdzHhmM4D6SCAAQg0COg+9sgHghxEJWQ+2J35CPPuvZE5NOvT59cpIsV22//PoUSzWmL8qGXaWn18f/+7//WRYz0Hbc+720/O5jk1nsJyu/J378b3nVcv+E9kBICEIBAjwBCnFJLsOnIR0Tk6Ivy9cHkremFtfE7zbr+y0P9Zq0f/dEfdQVZvfQjrU/8+oy+BOXBF3eNzw37yx/fr98S2xCAAATMBBBiM5/YR2078rGZvyFLYut3kpv/+q//ckXX/67pK1euuPuvXbs2KavVfqv6fHC/Nwv93Qi/ZPqltfJrVWMyQwACdSNQWSFWf16v3uaUxhKmkeTVkafl9ytf+crEf19Sl59VQ0rjk1Z9ppU1L7/TysVxCECgegQqK8SqI9X3J5P8DttBh02XdJNKy69qKIpj0If/Iw6iwj4IQAAC4QhUWojffPPNcBQipAordGHTRXAdKmlaftWIWNl+6623xsqhBPqZZ54Z25/EjrTqM61sefmdVi6OQwAC1SOAEEeMadgOOmy6iO6nJk/Lr75HrBrM9743fFGzvkf85S9/eWrZ4iRIqz7TypKX32nl4jgEIFA9AghxxJiG7aDDpovofmryNP2qS9A/+7M/646Ml5eXRc+aVo0orU+a9TGVOS+/pjJxDAIQqCYBhDhiXMN20GHTRXQ/NXnaftXzwEqQ2+22fOELXwi8VD21kBESpF2fSUXJy++k8rAfAhCoLgGEOGJsw3bQYdNFdD81eV5+pxYsZoK86pOX35iYyAYBCJSYQOWFOOnHl8J20GHTJd128vKbdD20vbzqk5dfXW++IQCB+hCorBA//fTTqTy+pGYI3759e2oLUR25hpvld9UEBI5TmxoJIACBkhPQGhFUDd41HUQl5L4vfvGLuQixCmiVPnCsUjSpCwQgEEQAIQ6iwj4IQAACEIBARgSMQtztdsW7rK+vp/Yqw4zqixsIQAACEIBAoQgoIVb66tVbve7oFf2NEBcqdhQGAhCAAAQqQAAhrkAQqQIEIAABCJSXAEJc3thRcghAAAIQqAABhLgCQaQKEIAABCBQXgIIcXljR8khAAEIQKACBBDiCgSRKkAAAhCAQHkJIMTljR0lhwAEIACBChBAiCsQRKoAAQhAAALlJYAQlzd2lBwCEIAABCpAACGuQBCpAgQgAAEIlJcAQlze2FFyCEAAAhCoAAGEuAJBpAoQgAAEIFBeAghxeWNHySEAAQhAoAIEEOIKBJEqQAACEIBAeQkgxOWNHSWHAAQgAIEKEDAKsb9+KrFa+EAAAhCAAAQgkAwBk7Y6fhemxP60bEMAAhCAAAQgMJ2ASVsR4un8SAEBCEAAAhCwIoAQW+EjMwQgAAEIQMCOAEJsx4/cEIAABCAAASsCCLEVPjJDAAIQgAAE7AggxHb8yA0BCEAAAhCwIoAQW+EjMwQgAAEIQMCOAEJsx4/cEIAABCAAASsCCLEVPjJDAAIQgAAE7AggxHb8yA0BCEAAAhCwIoAQW+EjMwQgAAEIQMCOAEJsx4/cEIAABCAAASsCCLEVPjJDAAIQgAAE7AggxHb8yA0BCEAAAhCwIoAQW+EjMwQgAAEIQMCOgFGIu92ueJf19fXC/h/x008/LfPz8ywwKHwbuH37tt1ZW7Dcqj6ce/Q9ZWgDSieK+FFCrPTVq7d63dEr+rvIQuw4jrz55pty48YNFhgUtg2odqraaJU+qj66Xpx/9D9FbQNKH1Q7LeKnckJcRMiUCQKagBYsvV2Fby3EVagLdaguAYQ4g9iqDk6B5gOBIhNAiIscHcpWZQIIcQbRRYgzgIwLawIIsTVCDEAgFgGEOBa2aJkQ4mi8SJ0PAYQ4H+54hQBCnEEbQIgzgIwLawIIsTVCDEAgFgGEOBa2aJkQ4mi8SJ0PAYQ4H+54hQBCnEEbQIgzgIwLawIIsTVCDEAgFgGEOBa2aJkQ4mi8SJ0PAYQ4H+54hQBCnEEbQIgzgIwLawIIsTVCDEAgFgGEOBa2aJkQ4mi8SJ0PAYQ4H+54hQBCnEEbQIgzgIwLawIIsTVCDEAgFgGEOBa2aJkQ4mi8SJ0PAYQ4H+54hQBCnEEbQIgzgIwLawIIsTVCDEAgFgGEOBa2aJkQ4mi8SJ0PAYQ4H+54hUBphdgfOtOfF/vTZr2NEGdNHH9xCCDEcaiRBwL2BIouxEpfgz5jf9yIEAdhKti+my33PzdVhx+0zBxfkOXzW7Lf8ZW7n2/xyqHvAJtJEkCIk6RZAludA9l+ZUUWTxyRRv+c7J2Dm7J7t5tMBSacu4fXW7LxjWRcVMEKQpxBFFUHp0DX/qOFeHZOFk4ujC1HGn2BbizJ5h0PrQknsycFqwkQQIgTgFgSEwfXVmRuIL7LsnqhLe0La7LyuBblhjQv7on/N3Hk6gWcu4dXl9wf4q2bka1VNgNCnEFoEeI+ZC3E53cnUO/I7vk59yRtPLcjg9/kASfzBAPstiCAEFvAK1HWgytLvRHw8RXZentwlg1rcLgjrccb7nk4d353eB4OU1itHV5ZRIh9BBFiH5A0NhHiPtWpQiwi3R1ZdX+pt2Qg1whxGs1yzCZCPIakejve2ZYVdeXp4TXZvWeo3vt70j6urlAdk9bNALE2ZJ12CCEeJ4QQjzNJfA9C3EcaRohlV1quEK/Itr4uNkmI3z+UHXWP6/iM+wtbcZ45vigrr+zI4fvDMO5dOCaO05DgS2EHsvGY6pjasjfMUss1hLj6Yd+7qM4FR5av6ZNrcp2719d6I+czW8NL1Hc3ZVGdn0FXtYKOjZy7h7J5anx+SPB5OblcVTyCEGcQVYS4DzmMEL+9IU11onuFceRk7tu6tyst9xd7Q448uSptdY/r+RVpzvZO9MbZ7WHncastxxxHRi5367i/vSELjiMLrx7oPbX9RoirHvoD2Tipzo9F2bwbpq670nLnbazKjh4UB4mtNhV0bOTc7cju5basne79GGieVfel27L9tjZQ32+EOIPYI8R9yEYh7krn21uydqJ3b6rpFcaRk7ln6+By0x3lLl3xC2h/hOssydZgknV/X2Nt2KH0i9QbITRlg87AHSnduHEjgzMiOxeqPur846MI6KtNnts+RjB6BLs4nDwZJLbaRtCxgHOXS9Ma2PAbIR6ySG0NIe6j1ULsXnoev0SlOKll5syWjMjr2Ml8KNvPLsiR2eAOZff8+K/+nnA7svpV/dNelWlP2g874ngvvaXWCopvWLFHiIsfp9gl1ELpBJ8343a1EDvD2zraRqxL0z0PCPE4aYR4nEniexDiPlItxIGPL6lHKDZk69ZgGDuMw5gQDw/J+13pdA5k7/qObF1uy+qZOZlxBd13+e2dLVlW+72XrG+23HtgK69Pv1/m8VjZVYS4sqHtVyzuiHhheMUIIU6lkSDEqWAdNYoQ93loIQ76NT2KbHQrSIjv7cvmuWZfdIej65njy7KoJl+N3QfryPZZtX9Ztt5R5ruy81xDnIDL1aPO67OFEFc91p57xN7n9CdWO+l7xD1HjIjHgSPE40wS34MQ95EmJsSHsnVa3UtuSPO5Tdm+dSCdTmfwvGPQpWlVAj0L1J0x2t2RtYYjjag/ChJvHcUxiBAXJxZpleTg1QX39k+Yt9R1b7bcSY4jt24YEacSGoQ4FayjRhHiPo+khFh3BoH3dvV9Ld+laVWEvviqjuXgq6vuM5LtW6OxqvMWQlyD6OvniBurw8cD+9Xeu9iUuTOrsnH9UGTwVILvOWJ97p3zvHCnn7/rnlO+R5sCrmYxIh5vZwjxOJPE9yDEfaRJC/HJS7Lvi9bBa/23Bo1dmu4l7D1TvCwrZxviPLYxOinMZ6tumwhxPSI+8c1a3UPZubDo3u5pNCa9Wat/ubqxKjveF4Lc25dL+hlh71WmICHuv+JydOJkPdhPqiVCPIlMgvsR4j7MpIRY9KVpRxoPLfXfk7sqSw+pzmNOmo/3nlMMfFFA/5liFZPm5ZG52QlGvJymEOJyxi1OqQ9eX5WF/rvd1byK8XdNq/kUx2T1jfGJjHsXe6+hdWabsvJ8W9rnlmVu1pGZ31/pTYicIsTyjd4kSef4sqzxHLEbPoQ4TiuOmAch7gNLTIhF5N6+bJ3vdQCKrzM7J8vnN2VXTbruz4YOFlr9nLGetBUxmBVOjhBXOLhBVZv070vnNmTnzr5sPbsgDTUP46XRN9WJdGT/WkuW+2+0azzUlJXL6g8i+rOypwmxdGTnfFP0n7zw1IK4fwqkzr8ifkz/bOh0u13xLuvr6zLpPxPzrhxCnHcEvP77Qux9jMl7uMbrCHGNgz+h6p1vbUnrVFOYSzEBUEK7iz4iVvrq1Vu9jhAn1ADqZqbzxqr7K3/tuvfFHnWjEFxfhDiYC3shkDYBhDhtwiLu4wIKNJ+8COxJ+8SCLPT/AL1xeksCXhuSV+EK4xchLkwoKEjNCCDEGQScS9MZQDa6OJDNX+89d3zkyUuy553tacxXr4MIcb3iTW2LQwAhziAWVezgMsCGi4wJVLGd8qcPGTci3MUiUOR2quZeVeYecdVeph+rtZGp0AQQ4kKHh8JVmABCnEFwq9jBZYANFxkTqGI7LXIHl3F4cVdgAkVup4yIC9xwKFr1CCDE1YspNSoHAYQ4gzhVsYPLABsuMiZQxXZa5A4u4/DirsAEitxOGREXuOFQtOoRQIirF1NqVA4CCHEGcapiB5cBNlxkTKCK7bTIHVzG4cVdgQkUuZ0yIi5ww6Fo1SOAEFcvptSoHAQQ4gziVMUOLgNsuMiYQBXbaZE7uIzDi7sCEyhyO2VEXOCGQ9GqRwAhrl5MqVE5CCDEGcSpih1cBthwkTGBKrbTIndwGYcXdwUmUOR2WrkRsYLNAoOitoEqC3FRmVMu+gPdBtT5V8SPUYj9BVaJ1VLEzyOPPOL+A5MCzQKDIrcB1SlU6aPqU2TelI3+QLcBpRNF/Ji0deyngylxEStHmSAAAQhAAAJFJ2DSVoS46NGjfBCAAAQgUHoCCHHpQ0gFIAABCECgzAQQ4jJHj7JDAAIQgEDpCSDEpQ8hFYAABCAAgTITQIjLHD3KDgEIQAACpSeAEJc+hFQAAhCAAATKTAAhLnP0KDsEIAABCJSeAEJc+hBSAQhAAAIQKDMBhLjM0aPsEIAABCBQegIIcelDSAUgAAEIQKDMBBDiMkePskMAAhCAQOkJIMSlDyEVgAAEIACBMhNAiMscPcoOAQhAAAKlJ4AQlz6EVAACEIAABMpMwCjE3W5XT6EMDAAADGdJREFUvMv6+nph/4+4zEGg7BCAAAQgUF8CSoiVvnr1Vq87ekV/I8T1bSjUHAIQgAAE0iGAEKfDFasQgAAEIACBUAQQ4lCYSAQBCEAAAhBIhwBCnA5XrEIAAhCAAARCEUCIQ2EiEQQgAAEIQCAdAghxOlyxCgEIQAACEAhFACEOhYlEEIAABCAAgXQIIMTpcMUqBCAAAQhAIBQBhDgUJhJBAAIQgAAE0iGAEKfDFasQgAAEIACBUAQQ4lCYSAQBCEAAAhBIhwBCnA5XrEIAAhCAAARCEUCIQ2EiEQQgAAEIQCAdAghxOlyxCgEIQAACEAhFACEOhYlEEIAABCAAgXQIGIXY71IlVgsfCEAAAhCAAASSIWDSVsfvwpTYn5ZtCEAAAhCAAASmEzBpK0I8nR8pEiKgGyLfvatOcCguh4SaPGYgMCCgz/fBDs8KQuyBwWq6BBzHkfn5eRYYFLoNqHbKBwJJE0CIkyaKvVgE6OBiYSNTxgRopxkDr4k7hLgmgS56Nengih4hyqcI0E5pB2kQQIjToIrNyATo4CIjI0MOBGinOUCvgUuEuAZBLkMV6eDKECXKSDulDaRBACFOgyo2IxOgg4uMjAw5EKCd5gC9Bi4R4hoEuQxVpIMrQ5QoI+2UNpAGAYQ4DarYjEyADi4yMjLkQIB2mgP0GrhEiGsQ5DJUkQ6uDFGijLRT2kAaBBDiNKhiMzIBOrjIyMiQAwHaaQ7Qa+ASIa5BkMtQRTq4MkSJMtJOaQNpEECI06CKzcgE6OAiIyNDDgRopzlAr4FLhLgGQS5DFengyhAlykg7pQ2kQcAoxN1uV7zL+vo6/0ecRhSwyasDaQOlIIAQlyJMpSukEmKlr1691euOXtHfCHHp4luaAtPBlSZUtS4o7bTW4U+t8ghxamgxHIUAHVwUWqTNiwDtNC/y1faLEFc7vqWpHR1caUJV64LSTmsd/tQqjxCnhhbDUQjQwYkcXll075UvXjk0ots977jpWjeNyQwHD2XzlLLRkl1DKg6NE6CdjjNhjz0BhNieIRYSIEAHhxAn0IxSN0E7TR1xLR0gxLUMe/EqTQeHEBevVY6XiHY6zoQ99gQQYnuGWEiAAB0cQpxAM0rdBO00dcS1dIAQ1zLsxas0HVwSQtyR/WstWT4+495DdpwZmTvTkq1vdXwBD7hHfHdTFh1H1P3p7rc3ZfXxI9JwHHFm52Tx3Kbs+034LNZlk3Zal0hnW0+EOFveeJtAgA7OVogPZPN0wxXgxkNLsnqhLe3nV6Q5qyZlzcjy1QMPeYMQP9+SpYYjM4+tyNqFtqw+2Rfk4yuyfddjoqartNOaBj7laiPEKQPGfDgCdHBDIVYswizeWdMHrzbdPM0Le9L1Ir+3LxuuQC/K5kBIJwux4zRk6dX9ERsHV5bc0XHjuZ2R/V43dVmnndYl0tnWEyHOljfeJhCggxsKceOhBVk4OXmZc0e5jgyFeE/aDzviPNyWvSC+N1uukC68qkfFBiEOtHEgG4+pHwcrsl3zS9S006AGxj5bAgixLUHyJ0KADm4oxJGfI+7f33UeXnIvJ7fVZWnv8tySHFOj7LPb0tNRgxCfD36yeO/iMVGj5dY3Egl3aY3QTksbukIXHCEudHjqUzg6uASEeNol7VOb0ntVyGQhnvQjQL9sZDgKr0/b9NaUduqlwXpSBBDipEhix4oAHVwCQnwu7D3cyULceCnw4rbsvaQmgh2T9i2rMJc+M+209CEsZAUQ4kKGpX6FooOzEGLZlVbDEaexJjsjM7V67ah7fU0as3PS/LwW2clC7Dy2IfpO8rAV6nvEq4H2h+mqv0Y7rX6M86ihUYj9BVKJ1cIHAkkToIOzEWKRvYtz7qzpufO7/fvA/Qjd25XWcTXRas4zmjUIsZo1fWVUig9e682aPnZ+l1nTjpN008ceBFxdnaStYy0OIabFpEUAIbYTYuke9B9TcmT8OeKGLLzkFVGDEB+fkzmnIUeeXJX2hTVZeaz3cpDGiZbs3ksr+uWxSzstT6zKVFKTtiLEZYpkyctKB2cpxG78+2/WOtF/CYcS1MdX5NJ1/785GYRYjai/tSmrWoAfasrKKzty+H7JG1hCxaedJgQSMyMEEOIRHGzkRYAOLi/yfb/6EagJjy/lXLrCuKedFiYUlSoIQlypcJa3MnRwOccOIQ4VANppKEwkikgAIY4IjOTpEKCDS4draKsIcShUtNNQmEgUkQBCHBEYydMhQAeXDtfQVhHiUKhop6EwkSgiAYQ4IjCSp0OADi4drlhNlgDtNFmeWOsRQIhpCYUgQAdXiDBQiCkEaKdTAHE4FgGEOBY2MiVNgA4uaaLYS4MA7TQNqthEiGkDhSBAB1eIMFCIKQRop1MAcTgWAYQ4FjYyJU2ADi5pothLgwDtNA2q2ESIaQOFIEAHV4gwUIgpBGinUwBxOBYBhDgWNjIlTYAOLmmi2EuDAO00DarYRIhpA4UgQAdXiDBQiCkEaKdTAHE4FgGEOBY2MiVNgA4uaaLYS4MA7TQNqtg0CnG32xXvsr6+zv8R02ZSIUAHlwpWjCZMgHaaMFDMuQSUECt99eqtXnf0iv5GiGk1aRGgg0uLLHaTJEA7TZImtjQBhFiT4DtXAqqDm5+fZ4FBodsAQpxrN1FZ5whxZUNbrorduHFDWGBQhjZQrjOL0paBAEJchihRRghAAAIQqCwBhLiyoaViEIAABCBQBgIIcRmiRBkhAAEIQKCyBBDiyoaWikEAAhCAQBkIIMRliBJlhAAEIACByhJAiCsbWioGAQhAAAJlIIAQlyFKlBECEIAABCpLACGubGipGAQgAAEIlIEAQlyGKFFGCEAAAhCoLAGEuLKhpWIQgAAEIFAGAghxGaJEGSEAAQhAoLIEEOLKhpaKQQACEIBAGQgYhdhfAZVYLXwgAAEIQAACEEiGgElbHb8LU2J/WrYhAAEIQAACEJhOwKStCPF0fqSAAAQgAAEIWBFAiK3wkRkCEIAABCBgRwAhtuNHbghAAAIQgIAVAYTYCh+ZIQABCEAAAnYEEGI7fuSGAAQgAAEIWBFAiK3wkRkCEIAABCBgRwAhtuNHbghAAAIQgIAVAYTYCh+ZIQABCEAAAnYEEGI7fuSGAAQgAAEIWBFAiK3wkRkCEIAABCBgRwAhtuNHbghAAAIQgIAVAYTYCh+ZIQABCEAAAnYEEGI7fuSGAAQgAAEIWBFAiK3wkRkCEIAABCBgR8AoxN1uV7zL+vo6/0dsx5vcEIAABCAAgRECSoiVvnr1Vq87ekV/I8Qj7NiAAAQgAAEIWBNAiK0RYgACEIAABCAQnwBCHJ8dOSEAAQhAAALWBBBia4QYgAAEIAABCMQngBDHZ0dOCEAAAhCAgDUBhNgaIQYgAAEIQAAC8QkgxPHZkRMCEIAABCBgTQAhtkaIAQhAAAIQgEB8AghxfHbkhAAEIAABCFgTQIitEWIAAhCAAAQgEJ8AQhyfHTkhAAEIQAAC1gQQYmuEGIAABCAAAQjEJ4AQx2dHTghAAAIQgIA1AYTYGiEGIAABCEAAAvEJIMTx2ZETAhCAAAQgYE3AKMR+6yqxWvhAAAIQgAAEIJAMAZO2On4XpsT+tGxDAAIQgAAEIDCdgElbEeLp/EgBAQhAAAIQsCKAEFvhIzMEIAABCEDAjgBCbMeP3BCAAAQgAAErAgixFT4yQwACEIAABOwIIMR2/MgNAQhAAAIQsCKAEFvhIzMEIAABCEDAjgBCbMeP3BCAAAQgAAErAgixFT4yQwACEIAABOwIIMR2/MgNAQhAAAIQsCIQS4hv3LghLDCgDdAGaAO0AdqAfRuIJMRXr16V+fl5d/nIRz4iNou2E/fbxrfKG9evzod/4m/TBnQ7ivtt45v2z/kft93pfLS/5Ps/pa9Bn7FXXHoTdbtdsVm8tuKs2/hWeW0/+Cf+Nm2A9mdHwIY95z/9n13rEyvti9r+EGJDtOgIEGKbNmBoWqEO2fiO2hEEFQj/tH+bNhDUpqLss/FdtvaPEBtaRp0aQhAG6k9HbNMGgtpUlH02vlVe2w/+af82bSBK+3NMjqIYCkprsh3mWJDNKPvC+DClieIrKK3JdphjQTaj7Avjw5Qmiq+gtCbbYY4F2YyyL4wPU5oovoLSmmyHORZkM8q+MD5MaaL4Ckprsh3mWJDNKPvC+DClieIrKK3JdphjQTaj7Avjw5Qmiq+gtCbbYY4F2YyyL4wPU5oovoLSmmz7j/1/nAQPfzc0678AAAAASUVORK5CYII=;" parent="1" vertex="1">
                    <mxGeometry x="20" y="70" width="278.29" height="306" as="geometry"/>
                </mxCell>
                <mxCell id="sHujsUZD7eR1zYQa2pCW-30" value="" style="group;fillColor=#FFFFFF;strokeColor=#080808;container=0;" parent="1" vertex="1" connectable="0">
                    <mxGeometry x="309.99999999999994" y="73" width="280" height="300" as="geometry"/>
                </mxCell>
                <mxCell id="sHujsUZD7eR1zYQa2pCW-138" value="" style="group;gradientColor=#b3b3b3;fillColor=#f5f5f5;strokeColor=#666666;" parent="1" vertex="1" connectable="0">
                    <mxGeometry x="910" y="73" width="240" height="297" as="geometry"/>
                </mxCell>
                <mxCell id="sHujsUZD7eR1zYQa2pCW-116" value="Math Quiz" style="strokeWidth=1;shadow=0;dashed=0;align=center;html=1;shape=mxgraph.mockup.containers.window;align=left;verticalAlign=top;spacingLeft=8;strokeColor2=#008cff;strokeColor3=#c4c4c4;fontColor=#666666;mainText=;fontSize=17;labelBackgroundColor=none;" parent="sHujsUZD7eR1zYQa2pCW-138" vertex="1">
                    <mxGeometry width="240" height="297" as="geometry"/>
                </mxCell>
                <mxCell id="sHujsUZD7eR1zYQa2pCW-117" value="&lt;b&gt;&lt;font style=&quot;font-size: 14px&quot;&gt;Value Range&lt;/font&gt;&lt;/b&gt;" style="text;html=1;strokeColor=none;fillColor=none;align=center;verticalAlign=middle;whiteSpace=wrap;rounded=0;" parent="sHujsUZD7eR1zYQa2pCW-138" vertex="1">
                    <mxGeometry x="72.5581395348837" y="30.212269172932313" width="94.88372093023254" height="13.3984962406015" as="geometry"/>
                </mxCell>
                <mxCell id="sHujsUZD7eR1zYQa2pCW-118" value="Low" style="rounded=0;whiteSpace=wrap;html=1;" parent="sHujsUZD7eR1zYQa2pCW-138" vertex="1">
                    <mxGeometry x="33.48837209302324" y="57.00926165413536" width="66.97674418604652" height="20.09774436090225" as="geometry"/>
                </mxCell>
                <mxCell id="sHujsUZD7eR1zYQa2pCW-119" value="High" style="rounded=0;whiteSpace=wrap;html=1;" parent="sHujsUZD7eR1zYQa2pCW-138" vertex="1">
                    <mxGeometry x="136.7441860465116" y="57.00926165413536" width="66.97674418604652" height="20.09774436090225" as="geometry"/>
                </mxCell>
                <mxCell id="sHujsUZD7eR1zYQa2pCW-120" value="to" style="text;html=1;strokeColor=none;fillColor=none;align=center;verticalAlign=middle;whiteSpace=wrap;rounded=0;" parent="sHujsUZD7eR1zYQa2pCW-138" vertex="1">
                    <mxGeometry x="108.83720930232558" y="60.3588857142857" width="22.325581395348834" height="13.3984962406015" as="geometry"/>
                </mxCell>
                <mxCell id="sHujsUZD7eR1zYQa2pCW-121" value="Play" style="strokeWidth=1;shadow=0;dashed=0;align=center;html=1;shape=mxgraph.mockup.buttons.button;strokeColor=#666666;fontColor=#ffffff;mainText=;buttonStyle=round;fontSize=17;fontStyle=1;fillColor=#008cff;whiteSpace=wrap;" parent="sHujsUZD7eR1zYQa2pCW-138" vertex="1">
                    <mxGeometry x="25.11627906976748" y="202.9179924812029" width="83.72093023255813" height="33.49624060150374" as="geometry"/>
                </mxCell>
                <mxCell id="sHujsUZD7eR1zYQa2pCW-122" value="Quit" style="strokeWidth=1;shadow=0;dashed=0;align=center;html=1;shape=mxgraph.mockup.buttons.button;strokeColor=#666666;fontColor=#ffffff;mainText=;buttonStyle=round;fontSize=17;fontStyle=1;whiteSpace=wrap;fillColor=#808080;" parent="sHujsUZD7eR1zYQa2pCW-138" vertex="1">
                    <mxGeometry x="131.1627906976744" y="202.9179924812029" width="83.72093023255813" height="33.49624060150374" as="geometry"/>
                </mxCell>
                <mxCell id="sHujsUZD7eR1zYQa2pCW-123" value="Help" style="strokeWidth=1;shadow=0;dashed=0;align=center;html=1;shape=mxgraph.mockup.buttons.button;strokeColor=#666666;fontColor=#ffffff;mainText=;buttonStyle=round;fontSize=17;fontStyle=1;whiteSpace=wrap;fillColor=#7F00FF;" parent="sHujsUZD7eR1zYQa2pCW-138" vertex="1">
                    <mxGeometry x="39.06976744186045" y="245.3492436090225" width="161.86046511627904" height="33.49624060150374" as="geometry"/>
                </mxCell>
                <mxCell id="sHujsUZD7eR1zYQa2pCW-124" value="" style="whiteSpace=wrap;html=1;aspect=fixed;" parent="sHujsUZD7eR1zYQa2pCW-138" vertex="1">
                    <mxGeometry x="119.71614617940196" y="98.26993082706765" width="15.572830264500109" height="15.572830264500109" as="geometry"/>
                </mxCell>
                <mxCell id="sHujsUZD7eR1zYQa2pCW-125" value="" style="whiteSpace=wrap;html=1;aspect=fixed;" parent="sHujsUZD7eR1zYQa2pCW-138" vertex="1">
                    <mxGeometry x="119.99900332225914" y="140.20767067669172" width="15.572830264500109" height="15.572830264500109" as="geometry"/>
                </mxCell>
                <mxCell id="sHujsUZD7eR1zYQa2pCW-126" value="" style="whiteSpace=wrap;html=1;aspect=fixed;" parent="sHujsUZD7eR1zYQa2pCW-138" vertex="1">
                    <mxGeometry x="119.99880398671091" y="119.17024511278198" width="15.572830264500109" height="15.572830264500109" as="geometry"/>
                </mxCell>
                <mxCell id="sHujsUZD7eR1zYQa2pCW-127" value="" style="whiteSpace=wrap;html=1;aspect=fixed;" parent="sHujsUZD7eR1zYQa2pCW-138" vertex="1">
                    <mxGeometry x="119.99880398671101" y="162.72027067669174" width="15.572830264500109" height="15.572830264500109" as="geometry"/>
                </mxCell>
                <mxCell id="sHujsUZD7eR1zYQa2pCW-128" value="" style="shape=image;html=1;verticalAlign=top;verticalLabelPosition=bottom;labelBackgroundColor=#ffffff;imageAspect=0;aspect=fixed;image=https://cdn3.iconfinder.com/data/icons/user-interface-169/32/plus-128.png;fillColor=#7F00FF;" parent="sHujsUZD7eR1zYQa2pCW-138" vertex="1">
                    <mxGeometry x="102.97196013289036" y="98.26993082706771" width="15.572830264500109" height="15.572830264500109" as="geometry"/>
                </mxCell>
                <mxCell id="sHujsUZD7eR1zYQa2pCW-129" value="" style="shape=image;html=1;verticalAlign=top;verticalLabelPosition=bottom;labelBackgroundColor=#ffffff;imageAspect=0;aspect=fixed;image=https://cdn3.iconfinder.com/data/icons/user-interface-169/32/minus-128.png;fillColor=#7F00FF;" parent="sHujsUZD7eR1zYQa2pCW-138" vertex="1">
                    <mxGeometry x="103.25142857142859" y="118.06174285714283" width="16.6132436388379" height="16.6132436388379" as="geometry"/>
                </mxCell>
                <mxCell id="sHujsUZD7eR1zYQa2pCW-130" value="" style="shape=image;html=1;verticalAlign=top;verticalLabelPosition=bottom;labelBackgroundColor=#ffffff;imageAspect=0;aspect=fixed;image=https://cdn4.iconfinder.com/data/icons/feather/24/x-128.png;fillColor=#7F00FF;" parent="sHujsUZD7eR1zYQa2pCW-138" vertex="1">
                    <mxGeometry x="104.3710963455149" y="141.54752030075187" width="14.5346415802001" height="14.5346415802001" as="geometry"/>
                </mxCell>
                <mxCell id="sHujsUZD7eR1zYQa2pCW-131" value="" style="shape=image;html=1;verticalAlign=top;verticalLabelPosition=bottom;labelBackgroundColor=#ffffff;imageAspect=0;aspect=fixed;image=https://cdn1.iconfinder.com/data/icons/outline-essentials-set/24/Icon_divide_outline-128.png;fillColor=#7F00FF;" parent="sHujsUZD7eR1zYQa2pCW-138" vertex="1">
                    <mxGeometry x="102.9755481727575" y="161.34201203007507" width="18.16830197525012" height="18.16830197525012" as="geometry"/>
                </mxCell>
                <mxCell id="sHujsUZD7eR1zYQa2pCW-132" value="" style="shape=image;html=1;verticalAlign=top;verticalLabelPosition=bottom;labelBackgroundColor=#ffffff;imageAspect=0;aspect=fixed;image=https://cdn1.iconfinder.com/data/icons/feather-2/24/check-128.png;fillColor=#7F00FF;" parent="sHujsUZD7eR1zYQa2pCW-138" vertex="1">
                    <mxGeometry x="122.50684385382051" y="101.03404060150372" width="10.381886843000071" height="10.381886843000071" as="geometry"/>
                </mxCell>
                <mxCell id="sHujsUZD7eR1zYQa2pCW-133" value="" style="shape=image;html=1;verticalAlign=top;verticalLabelPosition=bottom;labelBackgroundColor=#ffffff;imageAspect=0;aspect=fixed;image=https://cdn1.iconfinder.com/data/icons/feather-2/24/check-128.png;fillColor=#7F00FF;" parent="sHujsUZD7eR1zYQa2pCW-138" vertex="1">
                    <mxGeometry x="122.7897009966777" y="144.2272195488721" width="10.381886843000071" height="10.381886843000071" as="geometry"/>
                </mxCell>
                <mxCell id="sHujsUZD7eR1zYQa2pCW-134" value="" style="shape=image;html=1;verticalAlign=top;verticalLabelPosition=bottom;labelBackgroundColor=#ffffff;imageAspect=0;aspect=fixed;image=https://cdn1.iconfinder.com/data/icons/feather-2/24/check-128.png;fillColor=#7F00FF;" parent="sHujsUZD7eR1zYQa2pCW-138" vertex="1">
                    <mxGeometry x="122.78950166112946" y="123.18979398496239" width="10.381886843000071" height="10.381886843000071" as="geometry"/>
                </mxCell>
                <mxCell id="sHujsUZD7eR1zYQa2pCW-135" value="" style="shape=image;html=1;verticalAlign=top;verticalLabelPosition=bottom;labelBackgroundColor=#ffffff;imageAspect=0;aspect=fixed;image=https://cdn1.iconfinder.com/data/icons/feather-2/24/check-128.png;fillColor=#7F00FF;" parent="sHujsUZD7eR1zYQa2pCW-138" vertex="1">
                    <mxGeometry x="122.78950166112956" y="166.36644812030067" width="10.381886843000071" height="10.381886843000071" as="geometry"/>
                </mxCell>
                <mxCell id="sHujsUZD7eR1zYQa2pCW-33" value="Math Quiz" style="strokeWidth=1;shadow=0;dashed=0;align=center;html=1;shape=mxgraph.mockup.containers.window;align=left;verticalAlign=top;spacingLeft=8;strokeColor2=#008cff;strokeColor3=#c4c4c4;mainText=;fontSize=17;labelBackgroundColor=none;gradientColor=#b3b3b3;strokeColor=#666666;fillColor=#BFBFBF;" parent="1" vertex="1">
                    <mxGeometry x="610" y="73" width="280" height="300" as="geometry"/>
                </mxCell>
                <mxCell id="sHujsUZD7eR1zYQa2pCW-34" value="&lt;b&gt;&lt;font style=&quot;font-size: 14px&quot;&gt;Value Range&lt;/font&gt;&lt;/b&gt;" style="text;html=1;strokeColor=none;fillColor=none;align=center;verticalAlign=middle;whiteSpace=wrap;rounded=0;" parent="1" vertex="1">
                    <mxGeometry x="694.6511627906976" y="109.4736842105263" width="110.69767441860463" height="15.789473684210526" as="geometry"/>
                </mxCell>
                <mxCell id="sHujsUZD7eR1zYQa2pCW-35" value="Low" style="rounded=0;whiteSpace=wrap;html=1;" parent="1" vertex="1">
                    <mxGeometry x="649.0697674418604" y="141.05263157894737" width="78.13953488372093" height="23.684210526315788" as="geometry"/>
                </mxCell>
                <mxCell id="sHujsUZD7eR1zYQa2pCW-36" value="High" style="rounded=0;whiteSpace=wrap;html=1;" parent="1" vertex="1">
                    <mxGeometry x="769.5348837209302" y="141.05263157894737" width="78.13953488372093" height="23.684210526315788" as="geometry"/>
                </mxCell>
                <mxCell id="sHujsUZD7eR1zYQa2pCW-37" value="to" style="text;html=1;strokeColor=none;fillColor=none;align=center;verticalAlign=middle;whiteSpace=wrap;rounded=0;" parent="1" vertex="1">
                    <mxGeometry x="736.9767441860465" y="145" width="26.046511627906973" height="15.789473684210526" as="geometry"/>
                </mxCell>
                <mxCell id="sHujsUZD7eR1zYQa2pCW-38" value="Play" style="strokeWidth=1;shadow=0;dashed=0;align=center;html=1;shape=mxgraph.mockup.buttons.button;strokeColor=#666666;fontColor=#ffffff;mainText=;buttonStyle=round;fontSize=17;fontStyle=1;fillColor=#008cff;whiteSpace=wrap;" parent="1" vertex="1">
                    <mxGeometry x="639.3023255813954" y="251.578947368421" width="97.67441860465117" height="39.47368421052631" as="geometry"/>
                </mxCell>
                <mxCell id="sHujsUZD7eR1zYQa2pCW-39" value="Quit" style="strokeWidth=1;shadow=0;dashed=0;align=center;html=1;shape=mxgraph.mockup.buttons.button;strokeColor=#666666;fontColor=#ffffff;mainText=;buttonStyle=round;fontSize=17;fontStyle=1;whiteSpace=wrap;fillColor=#808080;" parent="1" vertex="1">
                    <mxGeometry x="763.0232558139535" y="251.578947368421" width="97.67441860465117" height="39.47368421052631" as="geometry"/>
                </mxCell>
                <mxCell id="sHujsUZD7eR1zYQa2pCW-40" value="Help" style="strokeWidth=1;shadow=0;dashed=0;align=center;html=1;shape=mxgraph.mockup.buttons.button;strokeColor=#666666;fontColor=#ffffff;mainText=;buttonStyle=round;fontSize=17;fontStyle=1;whiteSpace=wrap;fillColor=#7F00FF;" parent="1" vertex="1">
                    <mxGeometry x="655.5813953488372" y="306.84210526315786" width="188.83720930232556" height="39.47368421052631" as="geometry"/>
                </mxCell>
                <mxCell id="sHujsUZD7eR1zYQa2pCW-102" value="" style="whiteSpace=wrap;html=1;aspect=fixed;" parent="1" vertex="1">
                    <mxGeometry x="730.4688372093024" y="179.99631578947367" width="19.53488372093023" height="19.53488372093023" as="geometry"/>
                </mxCell>
                <mxCell id="sHujsUZD7eR1zYQa2pCW-103" value="" style="whiteSpace=wrap;html=1;aspect=fixed;" parent="1" vertex="1">
                    <mxGeometry x="730.4688372093024" y="207.6278947368421" width="19.53488372093023" height="19.53488372093023" as="geometry"/>
                </mxCell>
                <mxCell id="sHujsUZD7eR1zYQa2pCW-104" value="" style="whiteSpace=wrap;html=1;aspect=fixed;" parent="1" vertex="1">
                    <mxGeometry x="769.5386046511628" y="179.99631578947367" width="19.53488372093023" height="19.53488372093023" as="geometry"/>
                </mxCell>
                <mxCell id="sHujsUZD7eR1zYQa2pCW-105" value="" style="whiteSpace=wrap;html=1;aspect=fixed;" parent="1" vertex="1">
                    <mxGeometry x="769.5386046511628" y="207.6278947368421" width="19.53488372093023" height="19.53488372093023" as="geometry"/>
                </mxCell>
                <mxCell id="sHujsUZD7eR1zYQa2pCW-106" value="" style="shape=image;html=1;verticalAlign=top;verticalLabelPosition=bottom;labelBackgroundColor=#ffffff;imageAspect=0;aspect=fixed;image=https://cdn3.iconfinder.com/data/icons/user-interface-169/32/plus-128.png;fillColor=#7F00FF;" parent="1" vertex="1">
                    <mxGeometry x="710.9339534883721" y="179.99631578947367" width="19.53488372093023" height="19.53488372093023" as="geometry"/>
                </mxCell>
                <mxCell id="sHujsUZD7eR1zYQa2pCW-107" value="" style="shape=image;html=1;verticalAlign=top;verticalLabelPosition=bottom;labelBackgroundColor=#ffffff;imageAspect=0;aspect=fixed;image=https://cdn3.iconfinder.com/data/icons/user-interface-169/32/minus-128.png;fillColor=#7F00FF;" parent="1" vertex="1">
                    <mxGeometry x="749.6781395348837" y="179.99631578947367" width="20.83720930232558" height="20.83720930232558" as="geometry"/>
                </mxCell>
                <mxCell id="sHujsUZD7eR1zYQa2pCW-108" value="" style="shape=image;html=1;verticalAlign=top;verticalLabelPosition=bottom;labelBackgroundColor=#ffffff;imageAspect=0;aspect=fixed;image=https://cdn4.iconfinder.com/data/icons/feather/24/x-128.png;fillColor=#7F00FF;" parent="1" vertex="1">
                    <mxGeometry x="712.2362790697674" y="209.20684210526312" width="18.232558139534884" height="18.232558139534884" as="geometry"/>
                </mxCell>
                <mxCell id="sHujsUZD7eR1zYQa2pCW-109" value="" style="shape=image;html=1;verticalAlign=top;verticalLabelPosition=bottom;labelBackgroundColor=#ffffff;imageAspect=0;aspect=fixed;image=https://cdn1.iconfinder.com/data/icons/outline-essentials-set/24/Icon_divide_outline-128.png;fillColor=#7F00FF;" parent="1" vertex="1">
                    <mxGeometry x="749.6781395348837" y="206.4436842105263" width="22.790697674418603" height="22.790697674418603" as="geometry"/>
                </mxCell>
                <mxCell id="sHujsUZD7eR1zYQa2pCW-110" value="" style="shape=image;html=1;verticalAlign=top;verticalLabelPosition=bottom;labelBackgroundColor=#ffffff;imageAspect=0;aspect=fixed;image=https://cdn1.iconfinder.com/data/icons/feather-2/24/check-128.png;fillColor=#7F00FF;" parent="1" vertex="1">
                    <mxGeometry x="733.7246511627907" y="183.9436842105263" width="13.023255813953487" height="13.023255813953487" as="geometry"/>
                </mxCell>
                <mxCell id="sHujsUZD7eR1zYQa2pCW-111" value="" style="shape=image;html=1;verticalAlign=top;verticalLabelPosition=bottom;labelBackgroundColor=#ffffff;imageAspect=0;aspect=fixed;image=https://cdn1.iconfinder.com/data/icons/feather-2/24/check-128.png;fillColor=#7F00FF;" parent="1" vertex="1">
                    <mxGeometry x="733.7246511627907" y="212.36473684210526" width="13.023255813953487" height="13.023255813953487" as="geometry"/>
                </mxCell>
                <mxCell id="sHujsUZD7eR1zYQa2pCW-112" value="" style="shape=image;html=1;verticalAlign=top;verticalLabelPosition=bottom;labelBackgroundColor=#ffffff;imageAspect=0;aspect=fixed;image=https://cdn1.iconfinder.com/data/icons/feather-2/24/check-128.png;fillColor=#7F00FF;" parent="1" vertex="1">
                    <mxGeometry x="772.7944186046511" y="184.73315789473682" width="13.023255813953487" height="13.023255813953487" as="geometry"/>
                </mxCell>
                <mxCell id="sHujsUZD7eR1zYQa2pCW-113" value="" style="shape=image;html=1;verticalAlign=top;verticalLabelPosition=bottom;labelBackgroundColor=#ffffff;imageAspect=0;aspect=fixed;image=https://cdn1.iconfinder.com/data/icons/feather-2/24/check-128.png;fillColor=#7F00FF;" parent="1" vertex="1">
                    <mxGeometry x="772.7944186046511" y="212.36473684210526" width="13.023255813953487" height="13.023255813953487" as="geometry"/>
                </mxCell>
                <mxCell id="sHujsUZD7eR1zYQa2pCW-1" value="Math Quiz" style="strokeWidth=1;shadow=0;dashed=0;align=center;html=1;shape=mxgraph.mockup.containers.window;align=left;verticalAlign=top;spacingLeft=8;strokeColor2=#008cff;strokeColor3=#c4c4c4;fontColor=#666666;mainText=;fontSize=17;labelBackgroundColor=none;fillColor=#D4D4D4;strokeColor=#171717;" parent="1" vertex="1">
                    <mxGeometry x="309.99999999999994" y="73" width="280" height="300" as="geometry"/>
                </mxCell>
                <mxCell id="sHujsUZD7eR1zYQa2pCW-2" value="&lt;b&gt;&lt;font style=&quot;font-size: 14px&quot; color=&quot;#000000&quot;&gt;Value Range&lt;/font&gt;&lt;/b&gt;" style="text;html=1;strokeColor=none;fillColor=none;align=center;verticalAlign=middle;whiteSpace=wrap;rounded=0;" parent="1" vertex="1">
                    <mxGeometry x="394.65116279069764" y="112.4736842105263" width="110.69767441860463" height="15.789473684210526" as="geometry"/>
                </mxCell>
                <mxCell id="sHujsUZD7eR1zYQa2pCW-3" value="&lt;font color=&quot;#1c1c1c&quot;&gt;Low&lt;/font&gt;" style="rounded=0;whiteSpace=wrap;html=1;fillColor=none;strokeColor=#0A0A0A;" parent="1" vertex="1">
                    <mxGeometry x="349.0697674418604" y="144.05263157894737" width="78.13953488372093" height="23.684210526315788" as="geometry"/>
                </mxCell>
                <mxCell id="sHujsUZD7eR1zYQa2pCW-4" value="&lt;font color=&quot;#000000&quot;&gt;High&lt;/font&gt;" style="rounded=0;whiteSpace=wrap;html=1;fillColor=none;strokeColor=#000000;" parent="1" vertex="1">
                    <mxGeometry x="469.5348837209301" y="144.05263157894737" width="78.13953488372093" height="23.684210526315788" as="geometry"/>
                </mxCell>
                <mxCell id="sHujsUZD7eR1zYQa2pCW-5" value="&lt;font color=&quot;#000000&quot;&gt;to&lt;/font&gt;" style="text;html=1;strokeColor=none;fillColor=none;align=center;verticalAlign=middle;whiteSpace=wrap;rounded=0;" parent="1" vertex="1">
                    <mxGeometry x="436.97674418604646" y="148" width="26.046511627906973" height="15.789473684210526" as="geometry"/>
                </mxCell>
                <mxCell id="sHujsUZD7eR1zYQa2pCW-7" value="Play" style="strokeWidth=1;shadow=0;dashed=0;align=center;html=1;shape=mxgraph.mockup.buttons.button;strokeColor=#666666;fontColor=#ffffff;mainText=;buttonStyle=round;fontSize=17;fontStyle=1;fillColor=#008cff;whiteSpace=wrap;" parent="1" vertex="1">
                    <mxGeometry x="339.3023255813953" y="254.578947368421" width="97.67441860465117" height="39.47368421052631" as="geometry"/>
                </mxCell>
                <mxCell id="sHujsUZD7eR1zYQa2pCW-8" value="Quit" style="strokeWidth=1;shadow=0;dashed=0;align=center;html=1;shape=mxgraph.mockup.buttons.button;strokeColor=#666666;fontColor=#ffffff;mainText=;buttonStyle=round;fontSize=17;fontStyle=1;whiteSpace=wrap;fillColor=#808080;" parent="1" vertex="1">
                    <mxGeometry x="463.0232558139534" y="254.578947368421" width="97.67441860465117" height="39.47368421052631" as="geometry"/>
                </mxCell>
                <mxCell id="sHujsUZD7eR1zYQa2pCW-9" value="Help" style="strokeWidth=1;shadow=0;dashed=0;align=center;html=1;shape=mxgraph.mockup.buttons.button;strokeColor=#666666;fontColor=#ffffff;mainText=;buttonStyle=round;fontSize=17;fontStyle=1;whiteSpace=wrap;fillColor=#7F00FF;" parent="1" vertex="1">
                    <mxGeometry x="355.58139534883713" y="309.84210526315786" width="188.83720930232556" height="39.47368421052631" as="geometry"/>
                </mxCell>
                <mxCell id="sHujsUZD7eR1zYQa2pCW-10" value="" style="whiteSpace=wrap;html=1;aspect=fixed;fillColor=none;strokeColor=#000000;" parent="1" vertex="1">
                    <mxGeometry x="365.34883720930225" y="183.52631578947367" width="19.53488372093023" height="19.53488372093023" as="geometry"/>
                </mxCell>
                <mxCell id="sHujsUZD7eR1zYQa2pCW-11" value="" style="whiteSpace=wrap;html=1;aspect=fixed;fillColor=none;strokeColor=#000000;" parent="1" vertex="1">
                    <mxGeometry x="365.34883720930225" y="211.1578947368421" width="19.53488372093023" height="19.53488372093023" as="geometry"/>
                </mxCell>
                <mxCell id="sHujsUZD7eR1zYQa2pCW-12" value="" style="whiteSpace=wrap;html=1;aspect=fixed;fillColor=none;strokeColor=#000000;" parent="1" vertex="1">
                    <mxGeometry x="404.4186046511627" y="183.52631578947367" width="19.53488372093023" height="19.53488372093023" as="geometry"/>
                </mxCell>
                <mxCell id="sHujsUZD7eR1zYQa2pCW-13" value="" style="whiteSpace=wrap;html=1;aspect=fixed;" parent="1" vertex="1">
                    <mxGeometry x="404.4186046511627" y="211.1578947368421" width="19.53488372093023" height="19.53488372093023" as="geometry"/>
                </mxCell>
                <mxCell id="sHujsUZD7eR1zYQa2pCW-14" value="" style="shape=image;html=1;verticalAlign=top;verticalLabelPosition=bottom;labelBackgroundColor=#ffffff;imageAspect=0;aspect=fixed;image=https://cdn3.iconfinder.com/data/icons/user-interface-169/32/plus-128.png;fillColor=#7F00FF;" parent="1" vertex="1">
                    <mxGeometry x="345.813953488372" y="183.52631578947367" width="19.53488372093023" height="19.53488372093023" as="geometry"/>
                </mxCell>
                <mxCell id="sHujsUZD7eR1zYQa2pCW-15" value="" style="shape=image;html=1;verticalAlign=top;verticalLabelPosition=bottom;labelBackgroundColor=#ffffff;imageAspect=0;aspect=fixed;image=https://cdn3.iconfinder.com/data/icons/user-interface-169/32/minus-128.png;fillColor=#7F00FF;" parent="1" vertex="1">
                    <mxGeometry x="384.55813953488365" y="183.52631578947367" width="20.83720930232558" height="20.83720930232558" as="geometry"/>
                </mxCell>
                <mxCell id="sHujsUZD7eR1zYQa2pCW-19" value="" style="shape=image;html=1;verticalAlign=top;verticalLabelPosition=bottom;labelBackgroundColor=#ffffff;imageAspect=0;aspect=fixed;image=https://cdn4.iconfinder.com/data/icons/feather/24/x-128.png;fillColor=#7F00FF;" parent="1" vertex="1">
                    <mxGeometry x="347.1162790697674" y="212.73684210526312" width="18.232558139534884" height="18.232558139534884" as="geometry"/>
                </mxCell>
                <mxCell id="sHujsUZD7eR1zYQa2pCW-22" value="" style="shape=image;html=1;verticalAlign=top;verticalLabelPosition=bottom;labelBackgroundColor=#ffffff;imageAspect=0;aspect=fixed;image=https://cdn1.iconfinder.com/data/icons/outline-essentials-set/24/Icon_divide_outline-128.png;fillColor=#7F00FF;" parent="1" vertex="1">
                    <mxGeometry x="384.55813953488365" y="209.9736842105263" width="22.790697674418603" height="22.790697674418603" as="geometry"/>
                </mxCell>
                <mxCell id="sHujsUZD7eR1zYQa2pCW-23" value="" style="shape=image;html=1;verticalAlign=top;verticalLabelPosition=bottom;labelBackgroundColor=#ffffff;imageAspect=0;aspect=fixed;image=https://cdn1.iconfinder.com/data/icons/feather-2/24/check-128.png;fillColor=#7F00FF;" parent="1" vertex="1">
                    <mxGeometry x="368.6046511627907" y="187.4736842105263" width="13.023255813953487" height="13.023255813953487" as="geometry"/>
                </mxCell>
                <mxCell id="sHujsUZD7eR1zYQa2pCW-25" value="" style="shape=image;html=1;verticalAlign=top;verticalLabelPosition=bottom;labelBackgroundColor=#ffffff;imageAspect=0;aspect=fixed;image=https://cdn1.iconfinder.com/data/icons/feather-2/24/check-128.png;fillColor=#7F00FF;" parent="1" vertex="1">
                    <mxGeometry x="368.6046511627907" y="215.89473684210526" width="13.023255813953487" height="13.023255813953487" as="geometry"/>
                </mxCell>
                <mxCell id="sHujsUZD7eR1zYQa2pCW-26" value="" style="shape=image;html=1;verticalAlign=top;verticalLabelPosition=bottom;labelBackgroundColor=#ffffff;imageAspect=0;aspect=fixed;image=https://cdn1.iconfinder.com/data/icons/feather-2/24/check-128.png;fillColor=#7F00FF;" parent="1" vertex="1">
                    <mxGeometry x="407.6744186046511" y="188.26315789473682" width="13.023255813953487" height="13.023255813953487" as="geometry"/>
                </mxCell>
                <mxCell id="sHujsUZD7eR1zYQa2pCW-27" value="" style="shape=image;html=1;verticalAlign=top;verticalLabelPosition=bottom;labelBackgroundColor=#ffffff;imageAspect=0;aspect=fixed;image=https://cdn1.iconfinder.com/data/icons/feather-2/24/check-128.png;fillColor=#7F00FF;" parent="1" vertex="1">
                    <mxGeometry x="407.6744186046511" y="215.89473684210526" width="13.023255813953487" height="13.023255813953487" as="geometry"/>
                </mxCell>
            </root>
        </mxGraphModel>
    </diagram>
</mxfile>